<?xml version="1.0" encoding="utf-8"?>
<!-- Generator: Adobe Illustrator 27.1.1, SVG Export Plug-In . SVG Version: 6.00 Build 0)  -->
<!DOCTYPE svg PUBLIC "-//W3C//DTD SVG 1.1//EN" "http://www.w3.org/Graphics/SVG/1.1/DTD/svg11.dtd" [
	<!ENTITY ns_extend "http://ns.adobe.com/Extensibility/1.0/">
	<!ENTITY ns_ai "http://ns.adobe.com/AdobeIllustrator/10.0/">
	<!ENTITY ns_graphs "http://ns.adobe.com/Graphs/1.0/">
	<!ENTITY ns_vars "http://ns.adobe.com/Variables/1.0/">
	<!ENTITY ns_imrep "http://ns.adobe.com/ImageReplacement/1.0/">
	<!ENTITY ns_sfw "http://ns.adobe.com/SaveForWeb/1.0/">
	<!ENTITY ns_custom "http://ns.adobe.com/GenericCustomNamespace/1.0/">
	<!ENTITY ns_adobe_xpath "http://ns.adobe.com/XPath/1.0/">
]>
<svg version="1.1" id="Layer_1" xmlns:x="&ns_extend;" xmlns:i="&ns_ai;" xmlns:graph="&ns_graphs;"
	 xmlns="http://www.w3.org/2000/svg" xmlns:xlink="http://www.w3.org/1999/xlink" x="0px" y="0px" viewBox="0 0 40 71.5"
	 style="enable-background:new 0 0 40 71.5;" xml:space="preserve">
<style type="text/css">
	.st0{enable-background:new    ;}
</style>
<metadata>
	<sfw  xmlns="&ns_sfw;">
		<slices></slices>
		<sliceSourceBounds  bottomLeftOrigin="true" height="53.8" width="35.1" x="2.3" y="12.7"></sliceSourceBounds>
		<optimizationSettings>
			<targetSettings  fileFormat="PNG24Format" targetSettingsID="0">
				<PNG24Format  filtered="false" interlaced="false" matteColor="#FFFFFF" noMatteColor="false" transparency="true">
					</PNG24Format>
			</targetSettings>
		</optimizationSettings>
	</sfw>
</metadata>
<g class="st0">
	<path d="M21.2,5c3.1,0,13.5,0.6,15.3,12.7h-9.4c-1.3-3.2-3-4.5-6.3-4.5c-7.1,0-8.1,6.4-8.5,14.9c3.2-3.3,6-4.5,10.2-4.5
		c8.8,0,14.8,6.8,14.8,16.6c0,11.1-6.9,18.7-17.1,18.7c-9.4,0-18-5-18-25.9C2.3,17.2,6.8,5,21.2,5z M12.2,40.9
		c0,5.4,3.2,9.2,7.8,9.2c4.5,0,7.8-4,7.8-9.4c0-5.6-3-9.3-7.7-9.3C15.4,31.4,12.2,35.3,12.2,40.9z"/>
</g>
</svg>
