<?xml version="1.0" encoding="utf-8"?>
<!-- Generator: Adobe Illustrator 27.1.1, SVG Export Plug-In . SVG Version: 6.00 Build 0)  -->
<!DOCTYPE svg PUBLIC "-//W3C//DTD SVG 1.1//EN" "http://www.w3.org/Graphics/SVG/1.1/DTD/svg11.dtd" [
	<!ENTITY ns_extend "http://ns.adobe.com/Extensibility/1.0/">
	<!ENTITY ns_ai "http://ns.adobe.com/AdobeIllustrator/10.0/">
	<!ENTITY ns_graphs "http://ns.adobe.com/Graphs/1.0/">
	<!ENTITY ns_vars "http://ns.adobe.com/Variables/1.0/">
	<!ENTITY ns_imrep "http://ns.adobe.com/ImageReplacement/1.0/">
	<!ENTITY ns_sfw "http://ns.adobe.com/SaveForWeb/1.0/">
	<!ENTITY ns_custom "http://ns.adobe.com/GenericCustomNamespace/1.0/">
	<!ENTITY ns_adobe_xpath "http://ns.adobe.com/XPath/1.0/">
]>
<svg version="1.1" id="Layer_1" xmlns:x="&ns_extend;" xmlns:i="&ns_ai;" xmlns:graph="&ns_graphs;"
	 xmlns="http://www.w3.org/2000/svg" xmlns:xlink="http://www.w3.org/1999/xlink" x="0px" y="0px" viewBox="0 0 40 71.5"
	 style="enable-background:new 0 0 40 71.5;" xml:space="preserve">
<style type="text/css">
	.st0{enable-background:new    ;}
</style>
<metadata>
	<sfw  xmlns="&ns_sfw;">
		<slices></slices>
		<sliceSourceBounds  bottomLeftOrigin="true" height="53.8" width="36.2" x="1.6" y="12.7"></sliceSourceBounds>
		<optimizationSettings>
			<targetSettings  fileFormat="PNG24Format" targetSettingsID="0">
				<PNG24Format  filtered="false" interlaced="false" matteColor="#FFFFFF" noMatteColor="false" transparency="true">
					</PNG24Format>
			</targetSettings>
		</optimizationSettings>
	</sfw>
</metadata>
<g class="st0">
	<path d="M29.5,29.3c5.9,3.2,8.4,7.1,8.4,13.1c0,9.6-7.4,16.3-18.1,16.3C9,58.8,1.6,52.1,1.6,42.4c0-6,2.4-9.9,8.4-13.1
		c-4.6-2.4-6.6-5.5-6.6-10.4C3.3,10.8,10.2,5,19.7,5c9.4,0,16.3,5.8,16.3,13.8C36.1,24.7,33,27.5,29.5,29.3z M11.7,41.9
		c0,5,3.1,8.3,8,8.3s8.1-3.2,8.1-8.1c0-5.3-3.1-8.6-8.1-8.6C14.8,33.4,11.7,36.7,11.7,41.9z M12.2,19.7c0,4,3.2,6.8,7.6,6.8
		c4.4,0,7.6-2.8,7.6-6.7c0-4-3.1-6.7-7.6-6.7C15.3,13.1,12.2,15.9,12.2,19.7z"/>
</g>
</svg>
