<?xml version="1.0" encoding="utf-8"?>
<!-- Generator: Adobe Illustrator 27.1.1, SVG Export Plug-In . SVG Version: 6.00 Build 0)  -->
<!DOCTYPE svg PUBLIC "-//W3C//DTD SVG 1.1//EN" "http://www.w3.org/Graphics/SVG/1.1/DTD/svg11.dtd" [
	<!ENTITY ns_extend "http://ns.adobe.com/Extensibility/1.0/">
	<!ENTITY ns_ai "http://ns.adobe.com/AdobeIllustrator/10.0/">
	<!ENTITY ns_graphs "http://ns.adobe.com/Graphs/1.0/">
	<!ENTITY ns_vars "http://ns.adobe.com/Variables/1.0/">
	<!ENTITY ns_imrep "http://ns.adobe.com/ImageReplacement/1.0/">
	<!ENTITY ns_sfw "http://ns.adobe.com/SaveForWeb/1.0/">
	<!ENTITY ns_custom "http://ns.adobe.com/GenericCustomNamespace/1.0/">
	<!ENTITY ns_adobe_xpath "http://ns.adobe.com/XPath/1.0/">
]>
<svg version="1.1" id="Layer_1" xmlns:x="&ns_extend;" xmlns:i="&ns_ai;" xmlns:graph="&ns_graphs;"
	 xmlns="http://www.w3.org/2000/svg" xmlns:xlink="http://www.w3.org/1999/xlink" x="0px" y="0px" viewBox="0 0 40 71.5"
	 style="enable-background:new 0 0 40 71.5;" xml:space="preserve">
<style type="text/css">
	.st0{enable-background:new    ;}
</style>
<metadata>
	<sfw  xmlns="&ns_sfw;">
		<slices></slices>
		<sliceSourceBounds  bottomLeftOrigin="true" height="53.9" width="35.1" x="2" y="12.7"></sliceSourceBounds>
		<optimizationSettings>
			<targetSettings  fileFormat="PNG24Format" targetSettingsID="0">
				<PNG24Format  filtered="false" interlaced="false" matteColor="#FFFFFF" noMatteColor="false" transparency="true">
					</PNG24Format>
			</targetSettings>
		</optimizationSettings>
	</sfw>
</metadata>
<g class="st0">
	<path d="M18.4,58.8C9.6,58.8,3,53.1,2.7,45.2h9.7c0.2,3,2.7,5,6.2,5c5.7,0,8.4-4.8,8.4-14.5c-1.2,1.4-3.5,5-9.8,5
		C8.2,40.7,2,33.5,2,23C2,12.3,9,5,19.2,5c7.2,0,17.9,3.8,17.9,25.5C37.2,54.6,26.4,58.8,18.4,58.8z M11.6,22.8
		c0,5.8,2.9,9.5,7.5,9.5s7.8-3.7,7.8-9.4c0-6-3-9.8-7.9-9.8C14.5,13.2,11.6,16.9,11.6,22.8z"/>
</g>
</svg>
