<?xml version="1.0" encoding="utf-8"?>
<!-- Generator: Adobe Illustrator 27.1.1, SVG Export Plug-In . SVG Version: 6.00 Build 0)  -->
<!DOCTYPE svg PUBLIC "-//W3C//DTD SVG 1.1//EN" "http://www.w3.org/Graphics/SVG/1.1/DTD/svg11.dtd" [
	<!ENTITY ns_extend "http://ns.adobe.com/Extensibility/1.0/">
	<!ENTITY ns_ai "http://ns.adobe.com/AdobeIllustrator/10.0/">
	<!ENTITY ns_graphs "http://ns.adobe.com/Graphs/1.0/">
	<!ENTITY ns_vars "http://ns.adobe.com/Variables/1.0/">
	<!ENTITY ns_imrep "http://ns.adobe.com/ImageReplacement/1.0/">
	<!ENTITY ns_sfw "http://ns.adobe.com/SaveForWeb/1.0/">
	<!ENTITY ns_custom "http://ns.adobe.com/GenericCustomNamespace/1.0/">
	<!ENTITY ns_adobe_xpath "http://ns.adobe.com/XPath/1.0/">
]>
<svg version="1.1" id="Layer_1" xmlns:x="&ns_extend;" xmlns:i="&ns_ai;" xmlns:graph="&ns_graphs;"
	 xmlns="http://www.w3.org/2000/svg" xmlns:xlink="http://www.w3.org/1999/xlink" x="0px" y="0px" viewBox="0 0 70.2 71.5"
	 style="enable-background:new 0 0 70.2 71.5;" xml:space="preserve">
<style type="text/css">
	.st0{fill:none;}
	.st1{enable-background:new    ;}
</style>
<metadata>
	<sfw  xmlns="&ns_sfw;">
		<slices></slices>
		<sliceSourceBounds  bottomLeftOrigin="true" height="364.5" width="512.9" x="-175.1" y="-209"></sliceSourceBounds>
		<optimizationSettings>
			<targetSettings  fileFormat="PNG24Format" targetSettingsID="0">
				<PNG24Format  filtered="false" interlaced="false" matteColor="#FFFFFF" noMatteColor="false" transparency="true">
					</PNG24Format>
			</targetSettings>
		</optimizationSettings>
	</sfw>
</metadata>
<rect x="-175.1" y="-84" class="st0" width="512.9" height="364.5"/>
<rect y="-5.1" class="st0" width="70.2" height="76.6"/>
<g class="st1">
	<path d="M37,19.8c4,0,6.3,1.6,8,5.2l1.2-4.5h6.7l-5.6,20.2c-0.4,1.4-0.5,1.9-0.5,2.8c0,2.2,1.3,3.4,3.5,3.4c4.6,0,11.2-7,11.2-16.4
		c0-11.1-12-20.7-24.6-20.7C21.6,9.7,9.3,24.1,9.3,38S22.2,61.1,35,61.1c5.2,0,10.7-1.1,14.8-3l2.1,5.6c-5,2.3-10.3,3.3-17.1,3.3
		c-20.2,0-32.9-13-32.9-28.9c0-18.5,16.3-34.6,35.2-34.6c18,0,31,10.9,31,28.1c0,13.4-10.4,21.5-18,21.5c-5,0-8.1-2.4-9-5.3
		c-2.8,3.4-6.8,5.3-10.8,5.3c-6.6,0-11.8-5.5-11.8-12.3C18.6,36.3,22.5,19.8,37,19.8z M42.6,32.3c0-4.5-2.1-7.1-5.8-7.1
		c-5.6,0-10.7,7.1-10.7,14.4c0,4.3,2.3,7.5,5.9,7.5C38.1,47,42.6,38.1,42.6,32.3z"/>
</g>
</svg>
