<?xml version="1.0" encoding="utf-8"?>
<!-- Generator: Adobe Illustrator 27.1.1, SVG Export Plug-In . SVG Version: 6.00 Build 0)  -->
<!DOCTYPE svg PUBLIC "-//W3C//DTD SVG 1.1//EN" "http://www.w3.org/Graphics/SVG/1.1/DTD/svg11.dtd" [
	<!ENTITY ns_extend "http://ns.adobe.com/Extensibility/1.0/">
	<!ENTITY ns_ai "http://ns.adobe.com/AdobeIllustrator/10.0/">
	<!ENTITY ns_graphs "http://ns.adobe.com/Graphs/1.0/">
	<!ENTITY ns_vars "http://ns.adobe.com/Variables/1.0/">
	<!ENTITY ns_imrep "http://ns.adobe.com/ImageReplacement/1.0/">
	<!ENTITY ns_sfw "http://ns.adobe.com/SaveForWeb/1.0/">
	<!ENTITY ns_custom "http://ns.adobe.com/GenericCustomNamespace/1.0/">
	<!ENTITY ns_adobe_xpath "http://ns.adobe.com/XPath/1.0/">
]>
<svg version="1.1" id="Layer_1" xmlns:x="&ns_extend;" xmlns:i="&ns_ai;" xmlns:graph="&ns_graphs;"
	 xmlns="http://www.w3.org/2000/svg" xmlns:xlink="http://www.w3.org/1999/xlink" x="0px" y="0px" viewBox="0 0 49 71.5"
	 style="enable-background:new 0 0 49 71.5;" xml:space="preserve">
<style type="text/css">
	.st0{fill:none;}
	.st1{enable-background:new    ;}
</style>
<metadata>
	<sfw  xmlns="&ns_sfw;">
		<slices></slices>
		<sliceSourceBounds  bottomLeftOrigin="true" height="76.6" width="50.2" x="0" y="0"></sliceSourceBounds>
		<optimizationSettings>
			<targetSettings  fileFormat="PNG24Format" targetSettingsID="0">
				<PNG24Format  filtered="false" interlaced="false" matteColor="#FFFFFF" noMatteColor="false" transparency="true">
					</PNG24Format>
			</targetSettings>
		</optimizationSettings>
	</sfw>
</metadata>
<rect y="-5.1" class="st0" width="50.2" height="76.6"/>
<g class="st1">
	<path d="M34.2,20.6c-0.4-5.3-4.2-8.2-11-8.2c-5.5,0-9.1,2.5-9.1,6.5c0,3.8,2.2,5.3,9.9,6.8l8.2,1.6c9.7,1.9,13.9,6.2,13.9,14.5
		c0,10.7-8,17-21.5,17c-13.4,0-21.1-6.1-21.7-17.4h10.5c0.4,5.6,4.5,8.7,11.8,8.7c6.6,0,10.6-2.7,10.6-7.1c0-4.2-2.7-6.3-9.9-7.6
		L18.6,34C7.9,32,3.8,28,3.8,19.9c0-10.2,7.3-16.1,19.9-16.1c8.1,0,20.6,2.5,20.6,16.8H34.2z"/>
</g>
</svg>
