<?xml version="1.0" encoding="utf-8"?>
<!-- Generator: Adobe Illustrator 27.4.0, SVG Export Plug-In . SVG Version: 6.00 Build 0)  -->
<!DOCTYPE svg PUBLIC "-//W3C//DTD SVG 1.1//EN" "http://www.w3.org/Graphics/SVG/1.1/DTD/svg11.dtd" [
	<!ENTITY ns_extend "http://ns.adobe.com/Extensibility/1.0/">
	<!ENTITY ns_ai "http://ns.adobe.com/AdobeIllustrator/10.0/">
	<!ENTITY ns_graphs "http://ns.adobe.com/Graphs/1.0/">
	<!ENTITY ns_vars "http://ns.adobe.com/Variables/1.0/">
	<!ENTITY ns_imrep "http://ns.adobe.com/ImageReplacement/1.0/">
	<!ENTITY ns_sfw "http://ns.adobe.com/SaveForWeb/1.0/">
	<!ENTITY ns_custom "http://ns.adobe.com/GenericCustomNamespace/1.0/">
	<!ENTITY ns_adobe_xpath "http://ns.adobe.com/XPath/1.0/">
]>
<svg version="1.1" id="Layer_1" xmlns:x="&ns_extend;" xmlns:i="&ns_ai;" xmlns:graph="&ns_graphs;"
	 xmlns="http://www.w3.org/2000/svg" xmlns:xlink="http://www.w3.org/1999/xlink" x="0px" y="0px" viewBox="0 0 32 32"
	 style="enable-background:new 0 0 32 32;" xml:space="preserve">
<style type="text/css">
	.st0{fill:#32D54D;}
	.st1{fill:#606060;}
	.st2{fill:#FF0000;}
	.st3{fill:#FFFFFF;}
</style>
<metadata>
	<sfw  xmlns="&ns_sfw;">
		<slices></slices>
		<sliceSourceBounds  bottomLeftOrigin="true" height="281.6" width="423" x="-177.8" y="-250.1"></sliceSourceBounds>
	</sfw>
</metadata>
<rect x="49" y="-31.4" width="144" height="176.1"/>
<circle class="st0" cx="91.3" cy="16" r="24"/>
<image style="overflow:visible;" width="338" height="314" xlink:href="../../../../../Desktop/Screenshot 2023-04-08 at 12.43.37 AM.png"  transform="matrix(0.5 0 0 0.5 -229.9724 42.9508)">
</image>
<rect x="-221.6" y="205.7" class="st1" width="46.8" height="42"/>
<polygon class="st1" points="-172.3,218.6 -172.3,234.7 -154.8,250.1 -154.8,203.2 "/>
<image style="overflow:visible;" width="60" height="54" xlink:href="../../../../../Desktop/Screenshot 2023-04-08 at 12.52.49 AM.png"  transform="matrix(0.5 0 0 0.5 -31.9554 88.2707)">
</image>
<path class="st2" d="M50.3,107.8h-7c-1.1,0-2-0.9-2-2v-6.5c0-1.1,0.9-2,2-2h7c1.1,0,2,0.9,2,2v6.5C52.3,106.9,51.4,107.8,50.3,107.8
	z"/>
<path class="st2" d="M53.3,101v3.2l2.7,2.3c0.3,0.3,0.8,0.1,0.8-0.4v-7c0-0.4-0.5-0.6-0.8-0.4L53.3,101z"/>
<g>
	<path class="st3" d="M93.3,26.5h-14c-2.2,0-4-1.8-4-4v-13c0-2.2,1.8-4,4-4h14c2.2,0,4,1.8,4,4v13C97.3,24.7,95.5,26.5,93.3,26.5z"
		/>
	<path class="st3" d="M99.3,12.5v7l4.6,4.6c1.3,1.3,3.4,0.4,3.4-1.4V9.3c0-1.8-2.2-2.7-3.4-1.4L99.3,12.5z"/>
</g>
<circle class="st2" cx="150.1" cy="16" r="24"/>
<g>
	<path class="st3" d="M152.1,26.5h-14c-2.2,0-4-1.8-4-4v-13c0-2.2,1.8-4,4-4h14c2.2,0,4,1.8,4,4v13
		C156.1,24.7,154.3,26.5,152.1,26.5z"/>
	<path class="st3" d="M158.1,12.5v7l4.6,4.6c1.3,1.3,3.4,0.4,3.4-1.4V9.3c0-1.8-2.2-2.7-3.4-1.4L158.1,12.5z"/>
</g>
<circle class="st3" cx="150.1" cy="77.8" r="24"/>
<g>
	<path class="st2" d="M152.1,88.3h-14c-2.2,0-4-1.8-4-4v-13c0-2.2,1.8-4,4-4h14c2.2,0,4,1.8,4,4v13
		C156.1,86.5,154.3,88.3,152.1,88.3z"/>
	<path class="st2" d="M158.1,74.3v7l4.6,4.6c1.3,1.3,3.4,0.4,3.4-1.4V71.1c0-1.8-2.2-2.7-3.4-1.4L158.1,74.3z"/>
</g>
<circle class="st3" cx="91.3" cy="77.8" r="24"/>
<g>
	<path d="M93.3,88.3h-14c-2.2,0-4-1.8-4-4v-13c0-2.2,1.8-4,4-4h14c2.2,0,4,1.8,4,4v13C97.3,86.5,95.5,88.3,93.3,88.3z"/>
	<path d="M99.3,74.3v7l4.6,4.6c1.3,1.3,3.4,0.4,3.4-1.4V71.1c0-1.8-2.2-2.7-3.4-1.4L99.3,74.3z"/>
</g>
<path class="st2" d="M-20-6.5h-14c-2.2,0-4-1.8-4-4v-13c0-2.2,1.8-4,4-4h14c2.2,0,4,1.8,4,4v13C-16-8.3-17.8-6.5-20-6.5z"/>
<path class="st2" d="M-14-20.5v7L-9.4-9C-8.1-7.7-6-8.6-6-10.4v-13.3c0-1.8-2.2-2.7-3.4-1.4L-14-20.5z"/>
</svg>
